# xmcd CD database file
#
# Track frame offsets:
#	150
#	19996
#	33055
#	49966
#	76901
#	98055
#	113092
#	133952
#	162725
#
# Disc length: 2550 seconds
#
# Revision: 1
# Processed by: cddbd v1.5.2PL0 Copyright (c) Steve Scherf et al.
# Submitted via: CDex 1.50
#
DISCID=7209f409
DTITLE=Natalia M. King, Raye, de Paul,Cooke,Newton, Walker - SOULBLAZz_King,Crockett,Ivanovsky,Torchinsky,Belmondo,Cravic,Le Thiec,Pédron
DYEAR=2014
DGENRE=Jazz
TTITLE0=You Don't Know What Love Is
TTITLE1=I've Changed
TTITLE2=Ring Ring Dingaling
TTITLE3=Stronger Than I
TTITLE4=Lady Of The Night
TTITLE5=Today I Sing The Blues
TTITLE6=Nutty Revisited
TTITLE7=I Need To See You
TTITLE8=Love And Leave Me Kind - Amazing Grace
EXTD=YEAR: 2014
EXTT0=
EXTT1=
EXTT2=
EXTT3=
EXTT4=
EXTT5=
EXTT6=
EXTT7=
EXTT8=
PLAYORDER=
